<svg xmlns="http://www.w3.org/2000/svg" xmlns:xlink="http://www.w3.org/1999/xlink" xml:space="preserve" version="1.1" style="shape-rendering:geometricPrecision;text-rendering:geometricPrecision;image-rendering:optimizeQuality;" viewBox="0 0 333 416.25" x="0px" y="0px" fill-rule="evenodd" clip-rule="evenodd"><defs><style type="text/css">
   
    .fil0 {fill:black}
   
  </style></defs><g><path class="fil0" d="M246 85c18,0 32,14 32,32 0,14 -8,25 -20,30 22,6 38,25 38,49l0 31c-20,8 -39,12 -59,10l0 -29c0,-20 -9,-38 -23,-51 6,-5 12,-8 19,-10 -11,-5 -20,-16 -20,-30 0,-18 15,-32 33,-32zm-158 0c18,0 32,14 32,32 0,14 -8,25 -20,30 7,2 14,5 19,10 -14,13 -22,31 -22,51l0 29c-20,2 -40,-2 -60,-10l0 -31c0,-24 17,-43 39,-49 -12,-5 -21,-16 -21,-30 0,-18 15,-32 33,-32zm79 -10c21,0 38,18 38,39 0,16 -10,30 -24,36 26,6 46,30 46,58l0 38c-40,16 -80,16 -120,0l0 -38c0,-28 19,-52 45,-58 -14,-6 -24,-20 -24,-36 0,-21 17,-39 39,-39z"/></g><text x="0" y="348" fill="#000000" font-size="5px" font-weight="bold" font-family="'Helvetica Neue', Helvetica, Arial-Unicode, Arial, Sans-serif"></text><text x="0" y="353" fill="#000000" font-size="5px" font-weight="bold" font-family="'Helvetica Neue', Helvetica, Arial-Unicode, Arial, Sans-serif"></text></svg>