<svg xmlns:dc="http://purl.org/dc/elements/1.1/" xmlns:cc="http://creativecommons.org/ns#" xmlns:rdf="http://www.w3.org/1999/02/22-rdf-syntax-ns#" xmlns:svg="http://www.w3.org/2000/svg" xmlns="http://www.w3.org/2000/svg" xmlns:sodipodi="http://sodipodi.sourceforge.net/DTD/sodipodi-0.dtd" xmlns:inkscape="http://www.inkscape.org/namespaces/inkscape" version="1.1" x="0px" y="0px" viewBox="0 0 100 125"><g transform="translate(0,-952.36218)"><path style="text-indent:0;text-transform:none;direction:ltr;block-progression:tb;baseline-shift:baseline;color:#000000;enable-background:accumulate;" d="m 10.999998,973.36219 c -3.2893,0 -6,2.7107 -6,6 l 0,46.00001 c 0,3.2893 2.7107,6 6,6 l 78,0 c 3.2893,0 6.000004,-2.7107 6.000004,-6 l 0,-46.00001 c 0,-3.2893 -2.710704,-6 -6.000004,-6 l -78,0 z m 1.2188,4 75.5624,0 -35.875,31.37501 c -0.8861,0.7744 -2.9263,0.7744 -3.8124,0 l -35.875,-31.37501 z m -3.2188,2.5312 25.5625,22.31261 -25.5625,22.625 0,-44.93761 z m 82,0 0,44.93761 -25.5625,-22.625 25.5625,-22.31261 z m -53.4062,24.96881 7.875,6.875 c 2.5913,2.2645 6.4711,2.2644 9.0624,0 l 7.875,-6.875 25.4688,22.5 -75.75,0 25.4688,-22.5 z" fill="#000000" fill-opacity="1" stroke="none" marker="none" visibility="visible" display="inline" overflow="visible"/></g><text x="0" y="115" fill="#000000" font-size="5px" font-weight="bold" font-family="'Helvetica Neue', Helvetica, Arial-Unicode, Arial, Sans-serif"></text><text x="0" y="120" fill="#000000" font-size="5px" font-weight="bold" font-family="'Helvetica Neue', Helvetica, Arial-Unicode, Arial, Sans-serif"></text></svg>