<svg xmlns="http://www.w3.org/2000/svg" xmlns:xlink="http://www.w3.org/1999/xlink" version="1.1" x="0px" y="0px" viewBox="0 0 100 125" style="enable-background:new 0 0 100 100;" xml:space="preserve"><path d="M85.6,88.6c5.4-5.8,8.6-13.6,8.6-22.2c0-8.9-3.6-17-9.4-22.8c-2.5,20.9-20.5,37.1-42.3,37l-10.5,0  c5.3,11.1,16.5,18.7,29.6,18.6L97.3,99L85.6,88.6z"/><path d="M43.8,0.9C23.1,0.8,6.3,17.5,6.3,38.2c0,9.8,3.7,18.7,9.9,25.4l-13.4,12l40.8,0.1  c20.7,0.1,37.5-16.7,37.5-37.3C81.2,17.7,64.5,0.9,43.8,0.9z M33.4,49.8h-6.2V33.1h6.2V49.8z M57,49.8H36.5V33l9.3-10.2l4,0.7  L47,32.2h13.9L57,49.8z"/><text x="0" y="115" fill="#000000" font-size="5px" font-weight="bold" font-family="'Helvetica Neue', Helvetica, Arial-Unicode, Arial, Sans-serif"></text><text x="0" y="120" fill="#000000" font-size="5px" font-weight="bold" font-family="'Helvetica Neue', Helvetica, Arial-Unicode, Arial, Sans-serif"></text></svg>