<svg xmlns:dc="http://purl.org/dc/elements/1.1/" xmlns:cc="http://creativecommons.org/ns#" xmlns:rdf="http://www.w3.org/1999/02/22-rdf-syntax-ns#" xmlns:svg="http://www.w3.org/2000/svg" xmlns="http://www.w3.org/2000/svg" xmlns:sodipodi="http://sodipodi.sourceforge.net/DTD/sodipodi-0.dtd" xmlns:inkscape="http://www.inkscape.org/namespaces/inkscape" version="1.1" x="0px" y="0px" viewBox="0 0 100 125"><g transform="translate(0,-952.36218)"><path style="text-indent:0;text-transform:none;direction:ltr;block-progression:tb;baseline-shift:baseline;color:#000000;enable-background:accumulate;" d="m 25.000001,973.36215 c -8.27531,0 -15,6.7247 -15,15 l 0,27.99995 c 0,8.2754 6.72469,15.0001 15,15.0001 l 50,0 c 8.275307,0 14.999998,-6.7247 14.999998,-15.0001 l 0,-27.99995 c 0,-8.2753 -6.72469,-15 -14.999998,-15 l -50,0 z m 0,4 50,0 c 6.128497,0 10.999998,4.8715 10.999998,11 l 0,27.99995 c 0,6.1286 -4.8715,11.0001 -10.999998,11.0001 l -50,0 c -6.1285,0 -10.999999,-4.8715 -10.999999,-11.0001 l 0,-27.99995 c 0,-6.1285 4.871499,-11 10.999999,-11 z m 17,13 0,23.99995 20,-12 -20,-11.99995 z" fill="#000000" fill-opacity="1" stroke="none" marker="none" visibility="visible" display="inline" overflow="visible"/></g><text x="0" y="115" fill="#000000" font-size="5px" font-weight="bold" font-family="'Helvetica Neue', Helvetica, Arial-Unicode, Arial, Sans-serif"></text><text x="0" y="120" fill="#000000" font-size="5px" font-weight="bold" font-family="'Helvetica Neue', Helvetica, Arial-Unicode, Arial, Sans-serif"></text></svg>