<?xml version="1.0"?>
<svg xmlns="http://www.w3.org/2000/svg" height="512px" viewBox="0 0 512 512" width="512px"><path d="m332 210c-33.089844 0-60 26.910156-60 60h120c0-33.089844-26.910156-60-60-60zm0 0" fill="#FFFFFF"/><path d="m332 90c-16.539062 0-30 13.460938-30 30s13.460938 30 30 30 30-13.460938 30-30-13.460938-30-30-30zm0 0" fill="#FFFFFF"/><path d="m332 0c-99.257812 0-180 80.742188-180 180 0 44.238281 16.109375 84.738281 42.679688 116.109375l-22.421876 22.421875-21.210937-21.210938-151.046875 151.046876 63.632812 63.632812 151.046876-151.046875-21.210938-21.210937 22.421875-22.421876c31.371094 26.570313 71.871094 42.679688 116.109375 42.679688 99.257812 0 180-80.742188 180-180s-80.742188-180-180-180zm90 300h-180v-30c0-49.628906 40.371094-90 90-90-33.089844 0-60-26.910156-60-60s26.910156-60 60-60 60 26.910156 60 60-26.910156 60-60 60c49.628906 0 90 40.371094 90 90zm0 0" fill="#FFFFFF"/></svg>
